<?xml version="1.0" standalone="no"?>
<!DOCTYPE svg PUBLIC "-//W3C//DTD SVG 20010904//EN"
 "http://www.w3.org/TR/2001/REC-SVG-20010904/DTD/svg10.dtd">
<svg version="1.0" xmlns="http://www.w3.org/2000/svg"
 width="2550.000000pt" height="3300.000000pt" viewBox="0 0 2550.000000 3300.000000"
 preserveAspectRatio="xMidYMid meet">

<g transform="translate(0.000000,3300.000000) scale(0.100000,-0.100000)"
fill="#000000" stroke="none">
<path d="M6086 32991 c12 -11 215 -41 284 -41 30 -1 75 -5 100 -11 81 -17 164
-28 235 -30 39 -2 75 -6 81 -10 10 -8 22 -10 339 -53 255 -34 421 -55 535 -66
125 -12 401 -47 470 -60 69 -12 164 -27 260 -40 41 -6 109 -15 150 -21 41 -6
111 -15 155 -20 44 -5 116 -13 160 -19 44 -5 112 -14 150 -19 39 -5 133 -17
210 -26 77 -9 175 -23 218 -30 43 -8 84 -12 92 -8 8 3 23 2 33 -3 38 -17 276
-47 547 -69 94 -7 182 -16 196 -20 19 -5 28 -2 33 10 3 9 4 21 0 26 -3 5 -68
9 -144 9 -110 0 -142 3 -154 15 -8 8 -19 15 -24 15 -6 0 -12 4 -14 10 -2 6
-66 10 -160 11 -142 1 -183 7 -145 22 6 3 -42 6 -108 7 -84 0 -128 5 -145 15
-15 9 -54 14 -102 15 -45 0 -78 4 -80 11 -2 6 -46 13 -108 15 -135 6 -178 13
-160 24 8 5 12 11 10 13 -3 2 -57 9 -120 15 -119 12 -309 33 -464 52 -50 5
-93 15 -96 20 -4 6 -22 8 -43 5 -23 -4 -37 -2 -37 4 0 7 -23 11 -57 10 -32 -1
-69 3 -83 9 -33 13 -123 23 -237 26 -55 2 -99 8 -107 16 -10 7 -62 14 -138 17
-87 3 -142 11 -188 26 -43 14 -87 20 -130 19 -36 -1 -78 3 -95 8 -16 5 -51 11
-77 12 -27 2 -48 5 -48 8 0 3 -25 3 -56 1 -36 -2 -59 1 -64 9 -4 7 -51 13
-121 17 -63 3 -119 10 -126 15 -6 5 -38 11 -70 14 -79 6 -107 12 -111 24 -2 6
-86 10 -230 10 -128 0 -222 -4 -216 -9z"/>
<path d="M10386 32451 c-4 -6 -1 -11 8 -11 8 0 16 -4 18 -10 2 -5 86 -13 188
-17 102 -4 170 -9 153 -11 -18 -2 -33 -7 -33 -11 0 -10 145 -25 159 -17 5 4
42 -1 80 -9 39 -9 75 -14 81 -10 6 4 17 2 24 -4 7 -6 42 -13 77 -16 35 -3 102
-10 149 -15 229 -27 279 -33 335 -40 116 -16 221 -29 318 -39 109 -12 147 -19
163 -32 6 -5 50 -9 98 -10 56 -1 103 -7 134 -19 26 -10 90 -21 142 -25 52 -3
122 -10 155 -15 33 -5 101 -12 150 -15 50 -3 119 -8 155 -10 l65 -5 -35 23
c-28 17 -51 22 -115 24 -44 1 -86 2 -93 2 -7 1 -10 6 -7 11 3 6 1 10 -4 10 -6
0 -11 -4 -11 -10 0 -5 -22 -10 -50 -10 -36 0 -50 4 -50 14 0 10 -29 15 -127
21 -71 3 -150 13 -177 21 -27 8 -70 14 -95 14 -46 0 -171 25 -203 41 -9 5 -87
11 -173 14 -88 2 -165 10 -177 16 -12 6 -78 16 -147 20 -153 11 -204 18 -213
32 -3 5 -39 12 -80 14 -40 2 -116 8 -168 14 -52 5 -137 12 -187 15 -51 4 -93
10 -93 15 0 5 -15 9 -32 9 -18 0 -62 7 -98 14 -95 20 -276 31 -284 17z"/>
<path d="M13052 32111 c-19 -12 8 -21 63 -21 24 0 47 -4 50 -10 3 -5 45 -10
93 -10 80 1 85 2 67 16 -11 8 -28 13 -38 10 -9 -2 -52 2 -95 10 -90 16 -122
17 -140 5z"/>
<path d="M13360 32072 c0 -14 128 -41 225 -48 50 -3 95 -10 101 -15 13 -10
168 -29 247 -29 32 0 66 -4 76 -10 18 -9 32 -11 236 -29 158 -14 229 -22 239
-29 5 -3 48 -9 95 -14 47 -5 100 -12 116 -14 17 -3 68 -8 115 -12 47 -4 94
-12 105 -18 27 -15 72 -22 180 -29 50 -3 110 -10 135 -15 25 -5 72 -12 105
-14 33 -3 85 -9 115 -15 30 -5 113 -12 183 -15 70 -3 137 -11 149 -17 26 -14
49 -17 168 -25 52 -4 100 -11 106 -16 6 -4 56 -10 110 -12 67 -2 109 -9 130
-20 20 -10 69 -18 140 -22 60 -4 134 -13 164 -20 58 -15 133 -17 164 -5 19 7
18 8 -5 16 -73 24 -177 36 -301 36 -114 0 -138 3 -138 14 0 11 -12 15 -44 15
-25 0 -75 6 -113 14 -37 8 -90 15 -118 15 -61 2 -149 24 -138 35 4 4 -27 5
-69 1 -55 -5 -78 -4 -78 4 0 7 -21 11 -52 11 -29 0 -69 5 -89 10 -20 6 -76 12
-125 14 -92 4 -135 11 -169 27 -11 5 -85 14 -165 19 -221 15 -312 25 -343 38
-16 7 -45 12 -66 12 -21 0 -51 7 -68 15 -21 10 -82 16 -219 21 -104 3 -190 10
-192 15 -2 5 -10 9 -18 9 -8 0 -14 5 -14 10 0 6 -35 10 -84 10 -47 0 -97 5
-113 11 -15 6 -84 15 -153 21 -232 18 -295 26 -370 42 -81 17 -160 21 -160 8z
m863 -119 c-13 -2 -33 -2 -45 0 -13 2 -3 4 22 4 25 0 35 -2 23 -4z"/>
<path d="M16814 31623 c4 -24 31 -31 126 -33 47 -1 110 -6 140 -11 30 -5 91
-13 135 -18 149 -17 190 -23 205 -28 19 -7 17 -7 170 -32 69 -11 173 -22 230
-24 58 -3 112 -7 120 -10 8 -2 62 -12 120 -22 104 -17 141 -21 292 -28 43 -2
83 -9 90 -14 7 -6 64 -13 127 -16 80 -3 116 -9 122 -18 11 -18 226 -26 242
-10 8 8 -3 12 -39 13 -27 1 -61 2 -77 3 -15 1 -33 7 -39 13 -16 16 -55 15 -61
0 -4 -10 -7 -10 -18 0 -7 6 -29 12 -49 12 -21 0 -50 6 -66 14 -16 8 -69 17
-119 21 -49 3 -115 13 -145 20 -30 8 -77 13 -105 12 -27 -2 -79 3 -115 11
-153 32 -233 41 -365 42 -77 1 -131 5 -121 9 30 12 -85 32 -139 24 -28 -3 -45
-2 -45 5 0 5 -33 13 -72 17 -40 4 -82 12 -93 18 -20 11 -112 16 -277 16 -64 0
-90 4 -101 16 -22 21 -76 20 -73 -2z"/>
<path d="M1635 31490 c-110 -14 -179 -37 -314 -104 -228 -113 -365 -355 -341
-601 10 -103 17 -128 55 -210 53 -112 105 -175 199 -244 67 -49 133 -76 236
-97 74 -15 99 -15 195 -5 62 7 129 20 154 32 24 10 48 19 52 19 19 0 176 104
218 144 44 42 121 139 121 153 0 4 7 21 16 38 19 37 30 110 17 118 -6 4 -15
-11 -22 -32 -28 -96 -65 -157 -141 -231 -75 -75 -127 -120 -137 -120 -3 0 -19
-6 -36 -14 -101 -45 -136 -57 -206 -65 -183 -23 -360 41 -474 171 -110 124
-140 177 -171 296 -33 131 -10 299 56 409 43 71 148 170 234 221 54 32 89 44
159 56 137 24 173 21 249 -18 36 -19 66 -30 66 -24 0 28 -102 126 -122 117 -2
-1 -30 -5 -63 -9z"/>
<path d="M2116 31361 c-227 -63 -446 -284 -446 -449 0 -34 3 -43 10 -32 5 8
10 25 10 38 0 12 17 55 37 95 43 81 163 209 229 242 21 11 46 25 54 31 27 20
135 53 185 58 139 13 305 -51 418 -162 72 -70 148 -199 165 -282 25 -116 24
-167 -2 -254 -14 -46 -33 -89 -41 -96 -8 -7 -15 -19 -15 -26 0 -8 -35 -49 -77
-92 -83 -82 -183 -142 -273 -162 -65 -14 -161 -12 -190 5 -59 34 -67 8 -13
-41 22 -21 47 -34 62 -34 41 1 196 44 224 63 15 9 33 17 41 17 8 0 18 5 21 10
4 6 24 19 46 31 42 21 199 171 199 190 0 6 8 23 18 37 36 52 74 221 67 295
-15 156 -66 276 -162 373 -66 68 -105 94 -195 131 -87 35 -269 42 -372 14z"/>
<path d="M3713 31355 c-94 -26 -153 -77 -202 -172 -32 -63 -30 -208 4 -280 68
-147 239 -219 387 -163 65 25 133 94 142 145 12 60 -8 63 -44 8 -48 -72 -89
-102 -155 -114 -182 -33 -307 112 -281 325 13 97 86 183 179 207 75 21 147 1
208 -56 26 -25 52 -45 58 -45 32 0 9 74 -34 108 -55 43 -178 61 -262 37z"/>
<path d="M5580 31352 c-14 -5 -12 -29 4 -55 11 -17 15 -64 16 -197 1 -96 1
-181 1 -187 -2 -24 -29 -13 -62 25 -18 20 -94 102 -169 182 -75 80 -152 162
-171 182 -63 69 -63 72 -65 -212 -1 -140 -3 -262 -3 -271 -1 -9 -10 -26 -21
-39 -28 -33 -12 -47 52 -46 42 1 53 5 56 19 2 10 -3 26 -11 35 -12 14 -16 55
-18 202 -3 181 -3 185 18 188 13 2 30 -8 48 -30 15 -18 87 -96 159 -173 249
-265 224 -242 241 -221 9 12 11 26 6 40 -4 11 -6 127 -4 256 3 191 7 239 19
258 11 16 13 27 6 34 -10 10 -82 16 -102 10z"/>
<path d="M5934 31336 c-9 -13 -10 -25 -3 -38 12 -22 28 -23 65 -3 37 19 128
20 143 1 8 -10 12 -87 13 -249 0 -228 0 -237 -21 -264 -35 -43 -11 -52 122
-43 13 0 7 21 -13 47 -19 24 -20 41 -20 259 0 198 2 235 16 248 20 21 100 21
149 1 38 -17 65 -8 65 20 0 34 -28 38 -267 39 -221 1 -236 0 -249 -18z"/>
<path d="M8090 31352 c-15 -5 -12 -38 5 -52 13 -10 15 -52 15 -255 0 -203 -2
-245 -15 -255 -16 -13 -20 -46 -7 -53 4 -3 34 -2 67 2 53 5 60 9 57 26 -2 11
-10 27 -18 36 -11 12 -14 62 -14 246 0 210 2 231 18 246 39 35 128 10 162 -45
46 -75 3 -175 -83 -194 -34 -7 -44 -28 -26 -53 83 -115 165 -212 196 -233 47
-33 108 -46 116 -25 7 18 -3 33 -28 41 -38 12 -133 116 -185 203 -14 23 -13
26 9 41 112 80 130 180 49 268 -25 28 -52 46 -73 50 -35 6 -229 11 -245 6z"/>
<path d="M8804 31346 c-3 -7 4 -28 14 -47 18 -31 20 -52 18 -261 -2 -223 -3
-228 -26 -253 -35 -37 -16 -53 61 -49 34 2 64 6 67 9 3 3 -4 23 -17 45 -21 38
-22 47 -19 262 3 167 7 231 18 255 8 18 12 34 10 36 -3 2 -31 7 -63 10 -43 4
-59 2 -63 -7z"/>
<path d="M7420 31338 c0 -7 7 -32 15 -55 11 -31 14 -92 14 -244 0 -177 -3
-209 -19 -246 -13 -29 -15 -45 -8 -49 20 -13 242 -8 268 5 128 67 148 213 41
292 -38 28 -38 39 -6 87 44 64 28 136 -42 189 -34 26 -43 28 -150 31 -89 3
-113 1 -113 -10z m198 -48 c41 -25 67 -78 58 -116 -4 -16 -25 -45 -46 -64 -22
-20 -36 -41 -32 -47 4 -6 23 -18 44 -26 43 -18 88 -80 88 -122 0 -36 -30 -88
-63 -109 -13 -9 -44 -19 -68 -22 -79 -11 -79 -10 -79 265 0 171 3 240 12 249
18 18 49 15 86 -8z"/>
<path d="M18960 31336 c0 -16 50 -26 130 -26 30 0 71 -5 90 -10 19 -6 85 -11
145 -11 63 -1 113 -6 117 -12 3 -5 63 -12 135 -15 70 -2 133 -8 138 -12 19
-15 90 -29 175 -35 47 -3 114 -13 150 -20 85 -20 120 -24 208 -24 40 -1 71 -5
68 -10 -7 -11 53 -21 134 -21 36 0 92 -7 124 -15 31 -8 99 -18 149 -21 51 -3
110 -10 132 -15 22 -5 55 -9 74 -9 l34 0 -28 22 c-29 23 -32 23 -190 34 -55 3
-102 10 -105 14 -7 11 -76 19 -205 26 -60 4 -116 11 -123 16 -7 6 -59 12 -117
13 -58 1 -110 7 -117 13 -7 5 -39 13 -71 16 -32 3 -62 8 -67 11 -24 15 -137
26 -265 26 -77 0 -156 4 -175 9 -32 7 -33 8 -7 9 15 1 27 6 27 11 0 6 -44 10
-111 10 -60 0 -108 4 -105 9 9 13 -124 31 -238 31 -83 0 -106 -3 -106 -14z"/>
<path d="M4542 31328 c-5 -7 -13 -24 -17 -38 -6 -21 -30 -78 -85 -205 -5 -11
-32 -74 -61 -140 -28 -66 -65 -134 -82 -152 -51 -55 -31 -66 96 -54 5 1 6 18
2 39 -5 34 11 90 44 153 13 23 57 137 76 197 9 29 25 57 36 62 20 11 20 11 47
-65 5 -16 31 -84 58 -150 31 -78 49 -140 52 -177 4 -58 4 -58 37 -58 18 0 46
-3 64 -6 47 -10 51 17 9 64 -18 20 -49 75 -67 122 -18 47 -44 109 -57 138 -13
29 -24 56 -24 60 1 19 -96 222 -106 222 -6 0 -16 -6 -22 -12z"/>
<path d="M9473 31332 c-7 -5 -20 -33 -29 -63 -9 -30 -22 -61 -29 -69 -7 -8
-25 -46 -40 -85 -15 -38 -36 -88 -46 -110 -36 -80 -59 -138 -59 -151 0 -7 -16
-29 -35 -50 -19 -20 -35 -46 -35 -57 0 -17 5 -19 38 -13 20 3 48 6 61 6 21 0
23 3 18 35 -6 34 -1 47 58 180 28 63 64 161 70 192 4 17 13 37 21 44 20 16 41
-3 49 -44 3 -18 17 -57 30 -87 76 -177 96 -237 89 -279 l-7 -41 47 -2 c25 -1
56 -2 68 -2 33 -1 33 27 1 62 -29 33 -68 113 -128 270 -20 52 -49 122 -65 156
-17 35 -30 69 -30 77 0 15 -19 39 -29 39 -4 0 -12 -4 -18 -8z"/>
<path d="M6839 31303 c-6 -16 -25 -59 -43 -98 -19 -38 -43 -92 -54 -120 -11
-27 -40 -97 -64 -154 -24 -58 -57 -119 -75 -139 -18 -20 -32 -41 -30 -47 5
-13 120 -7 129 8 3 6 4 24 1 41 -3 22 8 63 38 136 23 58 45 110 49 115 4 6 17
40 30 78 33 95 50 90 89 -23 13 -36 29 -78 37 -95 50 -109 72 -184 67 -224
l-6 -41 34 0 c19 0 51 -3 71 -6 56 -10 59 15 9 65 -23 23 -41 49 -41 59 0 10
-4 22 -8 28 -5 5 -23 47 -41 93 -18 46 -36 91 -41 100 -16 28 -78 175 -85 201
-16 56 -49 67 -66 23z"/>
<path d="M21005 31090 c-9 -15 11 -21 107 -32 102 -13 121 -13 223 -9 82 3 64
19 -23 20 -29 1 -61 5 -70 10 -24 12 -230 22 -237 11z"/>
<path d="M25293 31063 c-51 -2 -93 -7 -93 -11 0 -4 -53 -9 -117 -10 -154 -3
-324 -19 -337 -32 -12 -12 -106 -14 -106 -2 0 5 -17 6 -37 3 -21 -4 -63 -3
-93 1 -30 5 -100 4 -155 -2 -327 -32 -427 -39 -582 -39 -108 0 -173 -4 -173
-10 0 -5 -19 -12 -42 -14 l-43 -4 43 -1 c23 -1 42 -6 42 -12 0 -13 52 -12 110
1 24 5 103 10 175 10 71 0 184 5 250 10 66 6 203 14 305 19 174 9 350 20 570
36 52 3 147 9 210 13 84 4 114 9 113 19 -3 11 62 17 140 12 15 -1 27 3 27 9 0
7 -22 10 -57 9 -32 -1 -100 -4 -150 -5z"/>
<path d="M21372 31030 c9 -6 51 -15 95 -21 43 -5 116 -17 163 -25 47 -8 139
-19 205 -24 66 -6 154 -15 195 -20 41 -6 131 -14 200 -20 141 -10 185 -17 217
-32 25 -12 410 -5 633 11 74 6 180 13 235 17 55 3 106 9 114 13 24 14 -114 21
-193 11 -42 -6 -260 -12 -484 -13 -358 -1 -414 1 -467 16 -32 9 -91 17 -130
17 -38 1 -110 8 -160 16 -49 9 -147 18 -217 21 -71 3 -128 9 -128 14 0 5 -11
9 -25 9 -14 0 -25 5 -25 10 0 6 -47 10 -122 10 -84 -1 -118 -4 -106 -10z"/>
<path d="M13708 2216 c-45 -16 -95 -57 -125 -102 -35 -50 -32 -132 6 -188 54
-79 135 -117 215 -102 35 7 96 49 96 67 0 18 -51 20 -95 4 -44 -17 -46 -17
-92 6 -38 19 -53 35 -71 73 -23 47 -23 50 -7 93 32 84 123 121 199 80 36 -19
56 -12 56 20 0 18 -8 28 -34 38 -53 22 -107 26 -148 11z"/>
<path d="M14885 2216 c-40 -17 -65 -56 -65 -99 0 -34 30 -69 119 -140 15 -12
21 -26 19 -44 -5 -41 -29 -50 -76 -29 -22 10 -45 15 -51 12 -38 -24 26 -96 86
-96 45 0 113 63 113 105 0 41 -26 87 -63 113 -18 12 -46 36 -62 52 -24 25 -27
34 -18 48 10 16 27 18 93 10 21 -2 26 2 28 24 3 21 -3 30 -27 42 -36 19 -56
19 -96 2z"/>
<path d="M21629 2217 c-86 -32 -149 -112 -149 -190 0 -84 85 -188 166 -203 57
-11 118 4 148 35 24 25 25 29 11 41 -16 13 -40 10 -92 -11 -28 -11 -36 -10
-80 12 -118 61 -122 181 -7 246 47 27 67 28 119 3 43 -20 65 -13 65 22 0 38
-119 68 -181 45z"/>
<path d="M23812 2214 c-25 -17 -29 -52 -7 -61 21 -8 57 26 53 51 -4 26 -19 29
-46 10z"/>
<path d="M22793 2209 c-17 -5 -34 -17 -37 -27 -2 -9 -4 -83 -4 -164 0 -104 4
-152 13 -165 9 -13 31 -18 82 -21 67 -4 70 -3 118 33 45 35 50 37 60 20 26
-47 40 -53 116 -51 l74 1 -3 30 c-2 17 -4 64 -5 105 -3 85 -7 94 -49 116 -35
18 -89 12 -109 -12 -19 -23 4 -39 51 -35 40 3 45 -3 40 -38 -3 -25 -57 -71
-83 -71 -18 0 -31 10 -46 35 -11 19 -25 35 -30 35 -6 0 -15 9 -21 21 -9 16 -7
27 9 55 27 45 26 52 -8 92 -40 47 -98 61 -168 41z m102 -69 c23 -25 14 -63
-19 -78 -20 -9 -28 -8 -41 4 -19 20 -19 58 1 78 21 21 37 20 59 -4z m20 -152
c35 -16 35 -65 -1 -78 -40 -16 -72 -12 -84 9 -14 27 -13 47 6 65 18 19 44 20
79 4z m235 -89 c0 -33 -22 -48 -45 -29 -19 16 -19 35 0 54 22 22 45 9 45 -25z"/>
<path d="M14187 2197 c-12 -10 -14 -39 -9 -175 5 -170 11 -192 48 -162 12 11
15 39 13 159 -1 80 -4 153 -6 163 -5 22 -28 29 -46 15z"/>
<path d="M14312 2198 c-5 -8 -10 -82 -10 -175 0 -126 4 -165 14 -174 10 -8 18
-9 27 0 19 15 23 341 4 353 -17 11 -23 10 -35 -4z"/>
<path d="M16273 2198 c-5 -7 -9 -87 -9 -177 1 -147 3 -165 19 -175 15 -9 21
-7 34 9 12 16 14 39 9 123 -6 98 -6 102 14 102 12 0 31 -15 48 -40 28 -40 54
-56 72 -45 6 4 22 24 36 46 15 24 32 39 44 39 19 0 20 -6 18 -112 -3 -104 -2
-113 16 -116 38 -8 44 20 40 184 -2 85 -6 159 -9 165 -9 14 -42 11 -57 -5 -7
-8 -26 -33 -43 -56 -53 -73 -74 -74 -124 -5 -18 24 -39 51 -47 60 -19 18 -48
20 -61 3z"/>
<path d="M18482 2197 c-17 -20 -5 -327 14 -346 11 -12 16 -12 29 -1 13 11 15
38 13 184 -3 165 -4 171 -24 174 -11 2 -26 -3 -32 -11z"/>
<path d="M22102 2193 c-4 -10 -6 -90 -3 -178 6 -156 7 -160 29 -163 12 -2 23
0 23 5 7 43 4 331 -4 341 -14 17 -35 15 -45 -5z"/>
<path d="M22232 2198 c-8 -8 -12 -61 -12 -174 0 -133 3 -164 15 -174 31 -26
39 4 42 171 2 109 -1 167 -8 176 -14 16 -22 16 -37 1z"/>
<path d="M15090 2160 c0 -13 7 -20 20 -20 13 0 20 7 20 20 0 13 -7 20 -20 20
-13 0 -20 -7 -20 -20z"/>
<path d="M17155 2170 c-9 -15 14 -40 31 -33 22 8 18 43 -5 43 -11 0 -23 -5
-26 -10z"/>
<path d="M18130 2161 c0 -20 25 -35 41 -25 5 3 9 14 9 25 0 14 -7 19 -25 19
-18 0 -25 -5 -25 -19z"/>
<path d="M19765 2170 c-9 -15 4 -30 26 -30 12 0 19 7 19 20 0 21 -33 29 -45
10z"/>
<path d="M17476 2088 c-13 -18 -15 -39 -10 -103 4 -44 13 -92 21 -107 17 -35
55 -60 85 -56 34 5 34 35 -1 67 -27 25 -31 36 -31 80 0 43 4 53 25 67 32 21
32 37 0 58 -34 23 -71 20 -89 -6z"/>
<path d="M23520 2090 c-17 -17 -19 -28 -13 -102 8 -111 27 -149 83 -163 15 -3
33 0 45 9 20 15 19 16 -17 46 -35 29 -38 36 -38 84 0 43 4 56 25 74 29 25 24
49 -12 63 -36 13 -51 11 -73 -11z"/>
<path d="M13970 2087 c-14 -7 -25 -21 -25 -32 0 -17 7 -20 45 -20 35 0 45 -4
48 -18 5 -23 -44 -77 -69 -77 -39 0 -54 -51 -24 -84 21 -23 30 -25 97 -23 l73
2 -2 35 c-1 19 -3 61 -3 92 0 74 -12 103 -49 123 -36 18 -58 19 -91 2z m72
-172 c8 -18 8 -28 -1 -39 -20 -23 -41 -8 -41 30 0 41 25 47 42 9z"/>
<path d="M14475 2082 c-50 -31 -68 -67 -63 -127 7 -88 69 -144 144 -132 44 7
64 23 64 49 0 17 -5 20 -27 15 -16 -3 -36 -9 -45 -12 -10 -4 -25 2 -38 15 -18
18 -20 31 -18 83 3 59 4 62 30 65 22 3 29 -2 34 -22 3 -14 4 -32 1 -40 -8 -19
18 -28 48 -16 36 14 33 52 -7 95 -41 44 -82 53 -123 27z"/>
<path d="M15241 2074 c-61 -51 -65 -158 -8 -214 39 -38 68 -46 119 -31 28 9
38 17 36 29 -2 13 -15 17 -52 18 -26 1 -52 6 -58 12 -5 5 -12 39 -14 74 -6 74
7 95 47 79 19 -6 24 -16 24 -42 0 -29 4 -34 26 -37 59 -7 61 57 3 108 -43 37
-82 39 -123 4z"/>
<path d="M15893 2084 c-18 -13 -28 -14 -55 -4 -38 14 -138 -1 -157 -23 -5 -7
-11 -52 -12 -101 -1 -70 2 -91 15 -104 15 -15 17 -15 33 1 13 13 17 31 15 75
-2 46 2 64 18 85 19 25 25 26 115 25 53 0 98 -5 101 -10 15 -24 -8 -59 -53
-81 -59 -28 -72 -59 -40 -91 21 -21 32 -23 103 -22 l79 1 -3 30 c-2 17 -4 60
-6 96 -4 80 -17 106 -61 125 -43 18 -64 17 -92 -2z m81 -170 c8 -21 7 -26 -3
-43 -13 -21 -41 4 -41 35 0 28 34 34 44 8z"/>
<path d="M16703 2088 c-13 -6 -23 -19 -23 -29 0 -14 9 -19 43 -21 57 -4 63
-35 14 -72 -19 -14 -39 -26 -45 -26 -13 0 -32 -32 -32 -54 0 -9 9 -25 20 -36
16 -16 30 -19 87 -16 37 2 72 4 76 5 5 1 6 25 2 54 -5 28 -7 68 -6 87 3 89
-65 142 -136 108z m75 -181 c2 -10 -2 -25 -9 -33 -16 -19 -39 0 -39 33 0 20 4
24 22 21 13 -2 24 -11 26 -21z"/>
<path d="M16958 2084 c-49 -26 -61 -74 -32 -123 13 -22 14 -34 5 -69 -7 -23
-21 -48 -31 -55 -20 -12 -26 -42 -12 -64 16 -26 84 -63 115 -63 41 1 111 48
115 78 5 31 -14 51 -65 73 -24 10 -43 23 -43 29 0 6 17 28 38 48 51 50 65 117
31 144 -26 22 -84 23 -121 2z m78 -58 c9 -24 -15 -56 -41 -56 -18 0 -26 7 -31
24 -3 14 -3 30 1 35 9 16 65 13 71 -3z m-2 -208 c22 -35 -27 -74 -59 -48 -18
15 -20 56 -2 64 22 9 50 1 61 -16z"/>
<path d="M17320 2093 c-29 -10 -60 -47 -60 -69 0 -14 18 -38 52 -67 60 -52 61
-77 3 -77 -42 0 -59 -25 -30 -46 29 -21 70 -17 103 11 48 40 47 61 -4 115 -24
26 -44 52 -44 59 0 7 14 17 30 22 34 12 39 34 11 49 -21 11 -37 12 -61 3z"/>
<path d="M17714 2087 c-41 -23 -76 -76 -82 -123 -4 -42 -3 -46 45 -94 38 -38
57 -50 81 -50 52 0 82 16 82 45 0 14 -1 25 -3 25 -1 0 -18 -4 -37 -10 -26 -8
-39 -6 -57 6 -22 14 -24 21 -21 82 3 62 5 67 27 70 30 5 43 -15 35 -50 -5 -26
-3 -28 25 -28 19 0 34 7 40 18 20 38 -44 122 -93 122 -11 -1 -31 -6 -42 -13z"/>
<path d="M18020 2090 c-8 -5 -29 -10 -47 -10 -42 0 -66 -25 -60 -63 2 -16 0
-49 -4 -73 -13 -68 15 -117 52 -93 10 6 13 25 12 61 -1 29 2 70 8 90 9 34 13
38 43 38 43 0 63 22 41 44 -19 19 -24 19 -45 6z"/>
<path d="M18262 2079 c-29 -26 -20 -39 28 -39 21 0 42 -5 45 -11 12 -18 -4
-57 -25 -64 -31 -10 -80 -55 -80 -74 0 -10 10 -27 23 -38 18 -17 34 -20 92
-19 l70 1 -2 35 c-1 19 -3 64 -3 99 -1 74 -10 95 -50 116 -40 21 -72 19 -98
-6z m76 -148 c22 -13 11 -66 -13 -66 -21 0 -32 32 -21 61 6 16 15 17 34 5z"/>
<path d="M18804 2081 c-49 -30 -64 -59 -64 -120 0 -50 3 -57 44 -97 36 -36 50
-44 80 -44 48 0 76 15 76 41 0 18 -4 20 -44 14 -38 -6 -45 -4 -63 19 -16 20
-20 36 -16 78 4 60 11 71 44 66 20 -2 25 -10 27 -40 2 -29 8 -38 22 -38 59 0
66 39 18 93 -41 46 -81 55 -124 28z"/>
<path d="M19040 2082 c-26 -13 -36 -24 -38 -46 -3 -25 5 -38 48 -78 28 -26 50
-54 47 -61 -2 -7 -22 -12 -47 -12 -50 0 -60 -15 -31 -44 26 -26 65 -27 106 -1
52 32 51 64 -2 121 -46 49 -52 79 -16 79 10 0 25 5 33 10 13 9 12 13 -9 30
-28 24 -45 24 -91 2z"/>
<path d="M19302 2090 c-87 -21 -124 -120 -74 -200 26 -41 40 -51 89 -63 45
-11 48 -14 54 -50 8 -48 23 -65 47 -51 11 7 17 24 17 48 -4 286 -4 285 -25
306 -21 21 -51 24 -108 10z m50 -52 c20 -15 31 -100 18 -134 -14 -35 -52 -32
-84 7 -29 34 -32 50 -15 82 11 21 48 56 60 57 3 0 12 -6 21 -12z"/>
<path d="M19950 2088 c-25 -5 -51 -17 -57 -26 -19 -24 -17 -196 2 -212 12 -10
18 -10 30 0 11 9 15 33 15 89 0 79 9 101 41 101 31 0 41 -27 40 -104 -1 -63 2
-77 18 -85 13 -7 24 -6 39 5 19 13 22 25 22 88 0 68 -2 75 -32 109 -39 42 -58
48 -118 35z"/>
<path d="M20160 2082 c-31 -25 -18 -42 31 -42 48 0 60 -20 35 -63 -16 -29 -16
-30 4 -44 23 -17 27 -61 5 -69 -22 -9 -46 16 -45 45 3 42 1 43 -30 21 -35 -25
-38 -52 -9 -79 18 -16 34 -19 98 -18 75 2 76 2 73 27 -2 14 -5 57 -7 96 -3 82
-14 108 -55 129 -39 20 -73 19 -100 -3z"/>
<path d="M20590 2082 c-42 -21 -80 -75 -80 -114 0 -72 56 -135 129 -145 27 -4
42 0 55 12 25 25 15 39 -34 46 -30 4 -50 14 -67 33 -31 36 -29 61 7 98 23 23
37 29 62 26 28 -2 34 1 36 19 3 17 -3 26 -23 33 -36 14 -44 13 -85 -8z"/>
<path d="M20833 2084 c-51 -26 -88 -89 -84 -146 1 -24 57 -86 94 -104 59 -31
126 4 172 90 l20 37 -27 47 c-46 83 -107 109 -175 76z m106 -73 c26 -36 26
-42 1 -91 -26 -51 -67 -56 -99 -11 -27 37 -27 71 0 105 29 36 71 35 98 -3z"/>
<path d="M21882 2084 c-39 -27 -28 -44 29 -44 l50 0 -3 -32 c-2 -28 -10 -37
-48 -56 -24 -12 -53 -31 -64 -42 -20 -19 -19 -20 11 -49 29 -27 36 -29 104
-27 l74 1 -3 30 c-1 17 -4 59 -6 95 -2 36 -4 73 -5 83 -1 22 -58 57 -91 57
-14 0 -36 -7 -48 -16z m83 -174 c9 -28 -13 -54 -31 -39 -15 12 -19 41 -7 52
13 13 32 7 38 -13z"/>
<path d="M22376 2068 c-58 -58 -61 -146 -6 -205 35 -37 67 -48 112 -39 37 7
58 23 58 42 0 11 -14 14 -55 13 -32 -1 -61 3 -67 9 -7 7 -14 41 -16 76 -4 57
-2 65 17 75 29 16 65 -3 58 -31 -9 -31 3 -48 33 -48 33 0 54 22 46 48 -11 33
-71 82 -109 89 -32 5 -41 1 -71 -29z"/>
<path d="M23385 2090 c-11 -5 -34 -9 -50 -9 -48 -1 -55 -16 -55 -114 0 -114
17 -149 54 -111 12 11 14 28 10 72 -5 49 -3 61 16 85 12 15 31 27 45 27 34 0
50 24 30 44 -18 18 -22 18 -50 6z"/>
<path d="M23762 2089 c-64 -19 -111 -119 -86 -184 11 -28 95 -85 126 -85 75 0
128 61 128 149 0 47 -4 57 -34 87 -19 19 -43 34 -54 34 -11 0 -26 2 -34 4 -7
2 -28 0 -46 -5z m90 -76 c15 -15 28 -37 28 -49 0 -32 -47 -84 -75 -84 -25 0
-75 51 -75 77 0 9 9 31 21 49 26 43 61 45 101 7z"/>
<path d="M24060 2088 c-25 -6 -50 -14 -56 -19 -14 -12 -24 -188 -12 -211 5
-10 15 -18 22 -18 27 0 40 31 38 90 -3 76 10 110 42 110 35 0 46 -26 46 -108
0 -82 17 -107 50 -77 18 16 20 28 16 97 -4 86 -21 123 -62 138 -14 6 -28 10
-32 9 -4 -1 -27 -6 -52 -11z"/>
<path d="M15518 2083 c-22 -3 -42 -11 -47 -21 -5 -9 -9 -58 -10 -108 -2 -74 1
-93 15 -104 14 -13 19 -11 35 9 16 19 18 33 13 72 -5 39 -3 53 15 78 14 19 31
31 45 31 27 0 51 24 41 40 -6 10 -32 11 -107 3z"/>
<path d="M21087 2077 c-26 -8 -28 -11 -26 -70 1 -34 -2 -78 -5 -97 -9 -46 14
-81 41 -64 14 9 19 28 23 92 6 88 15 106 51 100 29 -4 42 -46 33 -110 -7 -53
7 -88 36 -88 27 0 40 30 40 94 0 63 -12 101 -43 134 -17 19 -30 22 -72 21 -27
-1 -63 -6 -78 -12z"/>
<path d="M15082 2063 c-9 -16 -6 -150 4 -200 5 -25 39 -32 46 -10 7 18 1 205
-7 217 -10 15 -33 12 -43 -7z"/>
<path d="M19501 2071 c-11 -7 -14 -28 -12 -87 4 -134 41 -175 135 -150 68 18
76 32 73 139 -2 74 -5 92 -20 101 -30 18 -47 -16 -41 -83 6 -62 -9 -104 -40
-109 -31 -6 -41 16 -46 106 -5 90 -14 105 -49 83z"/>
<path d="M17164 2062 c-6 -4 -14 -46 -17 -93 -6 -94 4 -124 39 -117 17 3 19
13 22 88 4 119 -6 148 -44 122z"/>
<path d="M18140 2060 c-23 -15 -28 -181 -5 -203 12 -13 21 -15 36 -7 17 9 19
22 19 100 0 118 -9 136 -50 110z"/>
<path d="M19767 2063 c-4 -3 -7 -51 -7 -105 0 -79 3 -100 15 -104 31 -12 41
12 40 103 0 48 -4 94 -8 101 -9 13 -30 16 -40 5z"/>
<path d="M7758 1711 c-2 -6 -133 -12 -328 -15 -309 -6 -536 -19 -549 -31 -23
-24 152 -36 188 -14 13 9 50 9 137 2 70 -6 156 -6 209 -1 50 4 108 10 130 12
22 2 111 9 198 14 88 6 165 16 172 22 17 14 262 -3 330 -24 28 -8 95 -18 150
-21 100 -5 162 -14 242 -34 24 -6 77 -10 118 -8 42 2 79 -1 85 -7 7 -7 10 -7
10 1 0 21 -26 31 -93 37 -84 7 -137 16 -159 28 -59 30 -830 66 -840 39z"/>
<path d="M6560 1645 c-221 -15 -320 -25 -320 -34 0 -4 36 -7 80 -8 44 -1 80 1
80 5 0 4 99 8 220 10 120 1 229 6 242 11 23 9 23 9 -5 20 -32 13 -46 12 -297
-4z"/>
<path d="M8875 1611 c-8 -14 8 -21 34 -14 17 4 19 8 9 14 -17 11 -35 11 -43 0z"/>
<path d="M5958 1605 c-2 -3 -81 -7 -174 -11 -93 -3 -176 -8 -184 -11 -8 -3
-112 -9 -230 -13 -465 -17 -613 -28 -604 -42 5 -7 96 -9 278 -5 279 6 387 14
396 28 6 9 44 11 250 10 222 -1 496 22 517 42 3 4 -50 7 -119 7 -68 0 -127 -2
-130 -5z"/>
<path d="M8960 1602 c0 -15 155 -42 228 -41 39 1 72 6 72 10 0 4 -26 10 -57
14 -32 4 -82 11 -112 16 -67 11 -131 12 -131 1z"/>
<path d="M20377 1551 c-102 -66 -137 -183 -81 -267 62 -91 125 -120 223 -102
66 12 81 22 81 55 0 24 -2 25 -37 19 -113 -20 -132 -19 -169 9 -93 71 -74 190
37 241 35 15 45 16 72 5 18 -7 44 -16 59 -18 41 -8 48 21 15 55 -22 21 -38 27
-89 30 -57 3 -68 0 -111 -27z"/>
<path d="M23043 1566 c-42 -19 -105 -83 -127 -130 -45 -95 35 -228 155 -255
78 -18 175 16 167 58 -3 11 -12 15 -33 13 -116 -12 -132 -12 -155 0 -38 21
-70 75 -70 122 0 55 27 97 83 126 42 22 49 23 79 11 57 -23 84 -25 92 -5 5 12
-1 26 -18 43 -31 31 -122 40 -173 17z"/>
<path d="M9307 1555 c27 -19 109 -35 180 -35 34 0 52 -4 48 -10 -4 -6 7 -10
27 -10 18 0 51 -5 73 -11 47 -12 38 -12 180 -6 61 2 97 1 80 -2 l-30 -7 34
-12 c19 -7 58 -12 88 -12 75 0 247 -20 253 -29 11 -17 61 -24 187 -26 150 -2
193 9 76 19 -90 8 -119 12 -150 21 -16 5 -25 3 -29 -9 -3 -9 -16 -16 -28 -16
-17 0 -18 2 -6 10 23 14 8 21 -71 32 -41 5 -76 13 -79 18 -3 4 -54 12 -115 18
-124 12 -495 56 -598 72 -37 5 -84 10 -104 10 -36 0 -37 0 -16 -15z"/>
<path d="M20664 1548 c-12 -19 -13 -321 -1 -335 15 -20 45 -15 52 7 3 11 3 39
0 64 -9 57 14 106 51 106 32 0 45 -34 43 -110 -2 -65 4 -80 31 -80 26 0 33 32
28 120 -5 91 -29 120 -99 120 -52 0 -62 11 -52 60 8 45 -32 82 -53 48z"/>
<path d="M21047 1543 c-4 -15 -2 -310 2 -335 2 -13 49 -9 57 4 4 6 8 45 8 86
1 60 4 76 20 87 42 31 74 -25 62 -109 -5 -34 -3 -48 12 -67 17 -21 22 -22 37
-9 14 12 16 28 13 101 -4 108 -23 136 -97 141 l-46 3 -5 55 c-5 51 -7 55 -32
58 -19 2 -28 -2 -31 -15z"/>
<path d="M21823 1548 c-11 -15 -10 -318 1 -336 9 -15 43 -15 52 -1 4 7 6 38 5
69 -3 94 29 144 67 106 12 -12 18 -40 22 -99 5 -79 6 -82 30 -82 24 0 25 3 28
65 6 125 -19 173 -89 168 -21 -1 -43 2 -48 8 -6 5 -11 32 -13 59 -2 42 -6 50
-24 53 -11 2 -25 -3 -31 -10z"/>
<path d="M22838 1548 c-44 -36 -98 -164 -98 -231 0 -23 9 -62 20 -86 11 -24
20 -47 20 -52 0 -16 43 -76 63 -89 34 -21 38 9 9 64 -25 47 -27 61 -27 166 0
100 3 120 23 157 33 64 29 101 -10 71z"/>
<path d="M23312 1548 c-5 -8 -9 -79 -8 -172 1 -134 3 -160 17 -169 9 -6 24 -7
33 -4 13 5 16 21 16 79 0 76 16 118 45 118 27 0 47 -46 45 -102 -4 -96 -3
-100 28 -96 27 3 27 4 30 86 2 71 0 89 -18 118 -23 36 -24 37 -85 38 l-40 1
-3 45 c-5 63 -33 90 -60 58z"/>
<path d="M23704 1548 c-4 -7 -7 -35 -6 -63 2 -27 4 -102 5 -165 l2 -115 25 0
c24 0 25 2 26 70 0 82 15 125 43 125 34 0 46 -29 46 -108 0 -60 3 -77 17 -86
28 -17 49 13 55 82 5 50 2 66 -17 100 -25 45 -70 68 -99 52 -26 -13 -41 7 -41
55 0 41 -13 65 -36 65 -7 0 -16 -5 -20 -12z"/>
<path d="M24070 1537 c0 -12 6 -31 13 -42 56 -84 61 -212 12 -322 -53 -121 1
-119 65 2 33 63 35 74 33 152 -1 69 -6 92 -28 136 -45 87 -95 126 -95 74z"/>
<path d="M4230 1514 c-140 -7 -298 -17 -350 -22 -52 -5 -149 -10 -215 -11
-111 -2 -143 -10 -130 -32 6 -8 190 -2 465 16 124 8 338 17 475 21 260 6 413
21 243 23 -51 1 -88 5 -88 11 0 12 -60 11 -400 -6z"/>
<path d="M20935 1520 c-4 -7 -3 -16 3 -22 14 -14 45 -2 40 15 -6 16 -34 21
-43 7z"/>
<path d="M23585 1520 c-4 -7 -3 -16 3 -22 14 -14 45 -2 40 15 -6 16 -34 21
-43 7z"/>
<path d="M3484 1460 c-38 -15 -38 -30 0 -30 29 0 36 4 36 20 0 22 -4 23 -36
10z"/>
<path d="M3170 1447 c-91 -4 -208 -12 -260 -17 -52 -5 -135 -13 -185 -17 -83
-6 -86 -7 -42 -13 39 -5 214 -3 427 4 14 0 27 4 30 8 4 4 62 10 130 13 139 7
170 11 170 24 0 10 -18 10 -270 -2z"/>
<path d="M21607 1432 c-27 -29 -20 -41 26 -44 37 -3 42 -6 45 -29 2 -19 -4
-33 -24 -48 -15 -11 -33 -21 -40 -21 -7 0 -21 -12 -30 -26 -16 -24 -16 -27 3
-52 19 -25 25 -27 94 -27 l74 0 -3 100 c-3 99 -4 100 -38 133 -39 37 -82 42
-107 14z m73 -177 c0 -15 -6 -25 -14 -25 -19 0 -28 14 -20 34 10 25 34 19 34
-9z"/>
<path d="M22393 1438 c-13 -6 -23 -20 -23 -31 0 -16 5 -18 33 -13 42 7 59 -5
55 -39 -2 -19 -13 -33 -36 -46 -73 -39 -89 -72 -51 -107 16 -16 34 -19 89 -18
80 1 95 11 80 50 -5 15 -10 56 -10 91 0 60 -2 65 -35 94 -37 32 -64 37 -102
19z m73 -163 c4 -8 3 -26 0 -39 -4 -18 -11 -23 -26 -19 -29 8 -29 73 0 73 11
0 23 -7 26 -15z"/>
<path d="M21475 1413 c-14 -13 -16 -27 -10 -69 7 -55 -13 -114 -38 -114 -33 1
-42 20 -47 102 -5 82 -5 83 -32 86 l-28 3 0 -85 c0 -137 26 -168 127 -147 32
6 63 18 69 26 6 8 14 49 18 91 6 61 4 81 -9 100 -18 28 -28 30 -50 7z"/>
<path d="M22100 1415 c-8 -10 -11 -42 -9 -100 4 -76 7 -87 31 -112 27 -27 28
-27 94 -16 37 7 71 16 76 21 6 6 12 48 15 94 6 92 -4 128 -37 128 -28 0 -40
-30 -40 -104 0 -61 -14 -96 -39 -96 -24 0 -41 40 -41 99 0 86 -21 122 -50 86z"/>
<path d="M20935 1408 c-2 -7 -3 -56 -2 -108 2 -94 2 -95 27 -95 25 0 25 1 28
94 3 94 -5 121 -35 121 -7 0 -16 -6 -18 -12z"/>
<path d="M23584 1407 c-3 -8 -3 -56 -2 -108 3 -83 5 -94 22 -97 10 -2 22 1 26
7 8 14 5 185 -4 200 -10 15 -36 14 -42 -2z"/>
<path d="M2447 1404 c-1 -1 -60 -5 -132 -8 -71 -3 -148 -8 -170 -10 -57 -6
-277 -17 -435 -21 -319 -9 -760 -39 -790 -54 -8 -5 -60 -6 -115 -4 -132 5
-338 -10 -343 -25 -3 -9 -61 -12 -202 -12 -226 0 -260 -4 -260 -31 0 -16 8
-19 51 -19 28 0 60 5 72 12 13 7 67 13 127 14 185 2 385 15 388 25 2 5 19 9
38 9 21 0 33 -4 29 -10 -3 -5 -1 -10 4 -10 6 0 11 7 11 15 0 18 43 20 108 5
28 -7 64 -7 105 -1 34 6 125 12 202 15 77 3 163 8 190 11 28 3 147 10 265 15
118 6 238 15 265 20 62 13 283 19 333 11 46 -9 195 7 245 25 20 8 56 15 80 15
87 3 105 17 19 16 -45 0 -83 -2 -85 -3z"/>
<path d="M10604 1393 c19 -19 114 -40 188 -42 46 -1 85 -6 88 -10 9 -14 128
-32 237 -35 78 -2 119 -8 146 -21 28 -13 48 -16 80 -10 23 4 63 8 89 9 44 1
82 16 42 16 -10 0 -48 3 -84 6 -36 3 -83 6 -105 8 -22 1 -49 7 -60 13 -11 6
-78 16 -149 22 -70 6 -132 13 -136 16 -5 3 -44 7 -87 10 -43 3 -94 9 -113 15
-40 12 -147 14 -136 3z"/>
<path d="M11503 1273 c-13 -2 -23 -8 -23 -12 0 -11 166 -30 309 -34 90 -3 126
-8 132 -18 6 -10 39 -15 124 -17 127 -4 161 12 48 23 -38 3 -88 10 -113 15
-25 5 -86 11 -136 12 -71 2 -90 6 -86 16 3 10 -11 12 -64 10 -38 -1 -91 1
-119 4 -27 3 -60 4 -72 1z"/>
<path d="M23974 1226 c-10 -26 4 -48 28 -44 17 2 23 10 23 28 0 18 -6 26 -23
28 -13 2 -25 -3 -28 -12z"/>
<path d="M12255 1170 c-16 -7 -11 -9 23 -9 23 -1 42 -5 42 -11 0 -6 39 -10 98
-10 65 0 102 -4 110 -12 20 -20 132 -26 230 -12 74 10 45 23 -60 27 -57 2
-121 9 -143 16 -49 16 -272 24 -300 11z"/>
<path d="M12970 1099 c-36 -3 -58 -6 -50 -7 12 -2 13 -4 1 -11 -21 -14 13 -21
105 -22 108 -1 266 -17 344 -36 45 -11 87 -13 137 -9 53 5 72 3 76 -6 4 -10 8
-10 17 2 9 12 10 11 5 -7 -6 -22 -4 -23 69 -23 75 0 115 -5 338 -41 135 -22
141 -22 133 -10 -3 6 4 9 15 8 20 -1 29 -17 10 -17 -5 0 -10 -4 -10 -9 0 -5
35 -11 78 -14 254 -20 322 -27 362 -40 25 -7 81 -15 125 -16 44 -1 100 -9 125
-18 57 -19 142 -32 245 -37 87 -4 112 -8 196 -30 31 -8 100 -16 154 -17 78 -2
102 -6 116 -20 15 -15 35 -17 141 -16 68 1 132 -1 143 -4 74 -24 137 -37 185
-38 30 -1 90 -8 134 -16 43 -8 111 -15 151 -15 39 0 85 -4 101 -10 31 -10 132
-24 314 -43 63 -7 122 -16 130 -21 8 -6 80 -12 160 -14 92 -3 152 -9 165 -16
41 -26 97 -37 182 -37 49 0 126 -8 173 -19 47 -10 128 -22 180 -25 134 -9 143
-10 160 -17 14 -6 53 -11 190 -24 25 -3 59 -9 75 -14 17 -5 109 -14 205 -21
96 -6 180 -15 185 -19 17 -14 144 -33 175 -26 19 3 34 0 44 -9 9 -9 44 -16 97
-19 46 -3 124 -8 173 -11 48 -3 96 -9 105 -14 18 -10 147 -27 281 -37 47 -3
94 -11 104 -16 20 -11 185 -30 274 -32 32 -1 52 -5 52 -12 0 -19 26 -24 94
-17 35 3 73 2 83 -2 10 -4 37 -9 61 -11 23 -2 51 -8 61 -13 10 -6 20 -8 23 -6
10 10 260 -15 287 -29 17 -9 46 -14 72 -11 24 2 58 -1 76 -6 18 -6 58 -12 90
-14 32 -2 83 -9 113 -15 30 -6 109 -15 175 -20 69 -5 121 -13 123 -19 4 -13
392 -16 392 -3 0 7 -194 34 -335 47 -62 6 -125 14 -310 41 -60 9 -139 20 -175
24 -36 5 -94 14 -130 20 -112 19 -281 40 -380 46 -52 4 -99 10 -105 14 -5 4
-62 11 -125 15 -63 4 -118 9 -122 11 -3 2 -77 13 -165 24 -87 11 -185 24 -218
30 -33 5 -91 14 -130 19 -38 6 -99 15 -135 20 -58 9 -275 34 -385 45 -22 2
-114 14 -205 26 -91 11 -212 25 -270 31 -58 5 -136 16 -175 24 -38 8 -92 17
-120 20 -123 14 -138 16 -145 20 -4 2 -58 9 -121 15 -63 6 -136 15 -164 20
-27 5 -81 10 -120 11 -38 1 -97 8 -130 15 -33 7 -98 15 -145 18 -47 3 -99 10
-117 15 -17 5 -67 12 -110 16 -43 4 -106 13 -141 21 -35 8 -85 14 -112 14 -27
0 -59 4 -72 9 -13 5 -104 18 -203 30 -99 12 -218 26 -265 31 -47 6 -139 17
-205 25 -66 9 -156 20 -200 25 -196 24 -345 45 -495 70 -63 11 -138 20 -167
20 -28 0 -64 5 -79 10 -14 6 -70 15 -123 20 -53 5 -125 14 -161 19 -36 6 -128
17 -205 26 -77 9 -180 23 -230 32 -49 8 -124 18 -165 22 -42 4 -81 11 -89 15
-14 9 -221 33 -396 46 -66 4 -136 13 -155 20 -19 6 -79 13 -133 15 -129 5
-227 16 -227 25 0 11 -83 16 -160 9z"/>
<path d="M13276 1016 c3 -8 13 -12 25 -9 32 9 32 23 0 23 -22 0 -29 -4 -25
-14z"/>
<path d="M20639 901 c-64 -40 -114 -121 -113 -181 1 -62 47 -130 117 -170 62
-35 107 -38 172 -10 38 16 46 24 43 42 -3 25 -10 25 -109 12 -84 -11 -149 47
-149 132 0 47 32 101 70 122 25 12 90 11 156 -3 38 -8 53 15 26 41 -51 51
-145 58 -213 15z"/>
<path d="M22509 909 c-29 -29 -19 -43 35 -50 71 -8 89 -51 36 -89 -16 -12 -30
-27 -30 -33 0 -7 14 -24 30 -39 30 -27 38 -60 20 -88 -6 -10 -26 -15 -61 -15
-62 0 -71 -14 -35 -50 32 -32 72 -32 115 -1 66 49 79 98 45 161 -18 34 -18 37
-1 66 27 48 22 77 -22 120 -46 46 -97 53 -132 18z"/>
<path d="M22799 900 c-20 -16 -42 -43 -49 -60 -12 -28 -11 -34 9 -60 26 -36
27 -60 1 -93 -31 -39 -26 -74 18 -118 45 -45 81 -56 123 -39 27 12 99 91 99
111 0 4 -11 21 -25 37 -31 37 -31 55 -3 100 21 34 21 35 3 68 -24 45 -77 84
-112 84 -17 0 -43 -12 -64 -30z m95 -56 c24 -24 20 -63 -8 -75 -34 -16 -66 3
-66 41 0 44 44 65 74 34z m11 -178 c20 -31 6 -63 -31 -72 -46 -12 -85 51 -52
84 21 21 66 14 83 -12z"/>
<path d="M23474 905 c-21 -32 -11 -45 32 -45 76 0 100 -50 44 -90 -16 -12 -30
-27 -30 -34 0 -7 14 -25 30 -39 57 -51 28 -113 -47 -101 -47 7 -57 -2 -40 -36
32 -64 130 -41 175 41 l25 45 -23 47 c-24 47 -24 49 -6 81 22 41 15 84 -17
113 -55 50 -117 58 -143 18z"/>
<path d="M23745 910 c-26 -28 -13 -50 30 -50 77 0 96 -36 45 -85 -16 -16 -30
-35 -30 -42 0 -7 14 -22 30 -35 35 -26 40 -66 11 -92 -15 -14 -29 -16 -60 -11
-34 6 -42 4 -48 -11 -8 -23 39 -64 74 -64 54 0 133 75 133 127 0 11 -9 32 -20
46 -24 30 -25 56 -5 83 26 35 18 71 -26 114 -33 32 -49 40 -79 40 -24 0 -43
-7 -55 -20z"/>
<path d="M23079 905 c-35 -19 -38 -28 -30 -104 l6 -64 40 -14 c106 -35 97
-133 -11 -133 -71 0 -64 -55 9 -67 30 -5 44 -1 77 22 22 15 49 43 61 61 18 29
19 39 9 68 -11 33 -70 96 -90 96 -13 0 -40 30 -40 45 0 24 30 45 65 45 39 0
51 21 26 44 -22 20 -87 20 -122 1z"/>
<path d="M24003 913 c-19 -7 -16 -50 3 -57 9 -4 38 -4 64 0 37 5 48 3 53 -10
5 -13 -53 -154 -99 -239 -19 -35 -10 -69 18 -65 25 4 22 0 91 148 67 143 82
183 74 202 -7 21 -166 37 -204 21z"/>
<path d="M21197 896 c-11 -12 -14 -47 -12 -171 2 -89 7 -161 13 -167 5 -5 18
-8 28 -6 17 3 19 17 22 167 2 112 -1 168 -9 177 -15 18 -24 18 -42 0z"/>
<path d="M21595 868 c-43 -51 -70 -105 -85 -172 -9 -41 -8 -54 7 -84 24 -48
94 -97 126 -88 40 10 107 84 107 117 0 40 -60 105 -105 113 -46 9 -46 33 -1
77 45 44 50 73 15 77 -21 2 -35 -6 -64 -40z m75 -209 c15 -28 -12 -72 -42 -67
-28 4 -61 49 -52 72 15 40 72 37 94 -5z"/>
<path d="M21871 896 c-8 -9 -11 -65 -9 -176 3 -139 5 -164 20 -173 12 -8 21
-7 32 2 13 11 16 40 16 175 0 161 -5 186 -36 186 -6 0 -17 -6 -23 -14z"/>
<path d="M22204 902 c-5 -4 -23 -25 -39 -47 -16 -22 -51 -64 -78 -93 -66 -71
-63 -95 13 -102 70 -7 80 -14 80 -55 0 -31 20 -65 39 -65 17 0 31 27 31 61 0
20 7 42 15 49 21 17 19 42 -6 84 -16 28 -20 48 -17 103 2 54 0 68 -12 70 -8 2
-20 0 -26 -5z m-14 -152 c0 -24 -26 -38 -42 -22 -8 8 -8 15 2 27 18 21 40 19
40 -5z"/>
<path d="M20977 776 c-40 -33 -67 -76 -67 -109 0 -31 48 -107 82 -132 45 -31
124 -10 116 31 -3 15 -11 18 -39 16 -43 -4 -75 25 -66 59 3 12 1 31 -4 41 -8
14 -6 26 6 44 18 28 28 30 50 8 16 -16 16 -28 0 -66 -10 -26 39 -24 65 2 29
29 25 47 -19 91 -46 46 -81 50 -124 15z"/>
<path d="M21320 585 c-19 -23 -8 -50 20 -50 16 0 26 6 28 18 4 18 -14 47 -28
47 -4 0 -13 -7 -20 -15z"/>
</g>
</svg>
